# AST/ASF file generated using VICON BodyLanguage
# -----------------------------------------------
:version 1.10
:name VICON
:units
  mass 1.0
  length 0.45
  angle deg
:documentation
   .ast/.asf automatically generated from VICON data using
   VICON BodyBuilder and BodyLanguage model FoxedUp or BRILLIANT.MOD
:root
   order TX TY TZ RX RY RZ
   axis XYZ
   position 0 0 0  
   orientation 0 0 0 
:bonedata
  begin
     id 1 
     name lhipjoint
     direction 0.61522 -0.761478 0.204097 
     length 2.55743 
     axis 0 0 0  XYZ
  end
  begin
     id 2 
     name lfemur
     direction 0.34202 -0.939693 0  
     length 7.61162  
     axis 0 0 20  XYZ
    dof rx ry rz
    limits (-160.0 20.0)
           (-70.0 70.0)
           (-60.0 70.0)
  end
  begin
     id 3 
     name ltibia
     direction 0.34202 -0.939693 0   
     length 8.12393   
     axis 0 0 20   XYZ
    dof rx
    limits (-10.0 170.0)
  end
  begin
     id 4 
     name lfoot
     direction 0.0841971 -0.23133 0.969225   
     length 2.3572   
     axis -90 7.62852e-016 20   XYZ
    dof rx rz
    limits (-45.0 90.0)
           (-70.0 20.0)
  end
  begin
     id 5 
     name ltoes
     direction 1.53562e-011 -4.22209e-011 1   
     length 1.17993   
     axis -90 7.62852e-016 20   XYZ
    dof rx
    limits (-90.0 20.0)
  end
  begin
     id 6 
     name rhipjoint
     direction -0.625247 -0.75382 0.202044   
     length 2.58341  
     axis 0 0 0  XYZ 
  end
  begin
     id 7 
     name rfemur
     direction -0.34202 -0.939693 0   
     length 7.42147   
     axis 0 0 -20   XYZ
    dof rx ry rz
    limits (-160.0 20.0)
           (-70.0 70.0)
           (-70.0 60.0)
  end
  begin
     id 8 
     name rtibia
     direction -0.34202 -0.939693 0   
     length 8.20893   
     axis 0 0 -20   XYZ
    dof rx
    limits (-10.0 170.0)
 end
 begin
     id 9 
     name rfoot
     direction -0.124331 -0.341598 0.931586   
     length 2.45604  
     axis -90 -7.62852e-016 -20   XYZ
    dof rx rz
    limits (-45.0 90.0)
           (-20.0 70.0)
  end
  begin
     id 10 
     name rtoes
     direction -1.5353e-011 -4.2199e-011 1   
     length 1.21323   
     axis -90 -7.62852e-016 -20   XYZ
    dof rx
    limits (-90.0 20.0)
  end
  begin
     id 11 
     name lowerback
     direction -0.0218484 0.994884 -0.0986303   
     length 2.00523   
     axis 0 0 0   XYZ
    dof rx ry rz
    limits (-20.0 45.0)
           (-30.0 30.0)
           (-30.0 30.0)
  end
  begin
     id 12 
     name upperback
     direction -0.0097305 0.999717 -0.0217111   
     length 2.01352   
     axis 0 0 0   XYZ
    dof rx ry rz
    limits (-20.0 45.0)
           (-30.0 30.0)
           (-30.0 30.0)
  end
  begin
     id 13 
     name thorax
     direction -0.000928262 0.999699 0.0245198   
     length 2.02938   
     axis 0 0 0   XYZ
    dof rx ry rz
    limits (-20.0 45.0)
           (-30.0 30.0)
           (-30.0 30.0)
  end
  begin
     id 14 
     name lowerneck
     direction -0.0307979 0.998024 0.0547665   
     length 1.77263   
     axis 0 0 0   XYZ
    dof rx ry rz
    limits (-20.0 45.0)
           (-30.0 30.0)
           (-30.0 30.0)
  end
  begin
     id 15 
     name upperneck
     direction 0.0531587 0.996611 -0.0627734   
     length 1.77971   
     axis 0 0 0   XYZ
    dof rx ry rz
    limits (-20.0 45.0)
           (-30.0 30.0)
           (-30.0 30.0)
  end
  begin
     id 16
     name head
     direction 0.0213833 0.999404 -0.0271147  
     length 1.78263  
     axis 0 0 0   XYZ
    dof rx ry rz
    limits (-20.0 45.0)
           (-30.0 30.0)
           (-30.0 30.0)
  end
  begin
     id 17 
     name lclavicle
     direction 0.940017 0.332249 -0.0773233  
     length 3.73315  
     axis 0 0 0   XYZ
    dof ry rz
    limits (-20.0 10.0)
           (0.0 20.0)
  end
  begin
     id 18 
     name lhumerus
     direction 1 -4.48944e-011 7.52288e-028   
     length 5.40188   
     axis 180 -30 -90   XYZ
    dof rx ry rz
    limits (-60.0 90.0)
           (-90.0 90.0)
           (-90.0 90.0)
  end
  begin
     id 19
     name lradius
     direction 1 -4.48988e-011 1.48381e-027   
     length 3.68559   
     axis 180 -30 -90   XYZ
    dof rx
    limits (-10.0 170.0)
  end
  begin
     id 20
     name lwrist
     direction 1 -4.48925e-011 2.56952e-028   
     length 1.84279   
     axis -5.12785e-016 90 90   XYZ
    dof ry
    limits (-180.0 0.0)
 end
  begin
     id 21 
     name lhand
     direction 1 -4.49009e-011 5.13905e-028   
     length 0.61753   
     axis -3.27915e-016 90 90   XYZ
    dof rx rz
    limits (-90.0 90.0)
           (-45.0 45.0)
  end
  begin
     id 22 
     name lfingers
     direction 1 -4.49012e-011 1.02781e-027   
     length 0.497868   
     axis -6.5583e-016 90 90   XYZ
    dof rx
    limits (0.0 90.0)
  end
  begin
     id 23
     name lthumb
     direction 0.707107 -6.34987e-011 0.707107   
     length 0.714842   
     axis -90 45 2.85299e-015   XYZ
    dof rx rz
    limits (-45.0 45.0)
           (-45.0 45.0)
  end
  begin
     id 24 
     name rclavicle
     direction -0.9009 0.425937 -0.0834057   
     length 3.27864  
     axis 0 0 0   XYZ 
    dof ry rz
    limits (-10.0 20.0)
           (-20.0 0.0)
  end
  begin
     id 25 
     name rhumerus
     direction -1 -4.48953e-011 -1.03572e-027  
     length 6.1067   
     axis 180 30 90   XYZ
    dof rx ry rz
    limits (-90.0 60.0)
           (-90.0 90.0)
           (-90.0 90.0)
  end
  begin
     id 26 
     name rradius
     direction -1 -4.48975e-011 1.20742e-027   
     length 3.63052   
     axis 180 30 90   XYZ
    dof rx
    limits (-10.0 170.0)
  end
  begin
     id 27 
     name rwrist
     direction -1 -4.49017e-011 2.56952e-028   
     length 1.81526   
     axis -5.12785e-016 -90 -90   XYZ
    dof ry
    limits (-180.0 0.0)
  end
  begin
     id 28
     name rhand
     direction -1 -4.48832e-011 5.13905e-028   
     length 0.583848   
     axis -3.27915e-016 -90 -90   XYZ
    dof rx rz
    limits (-90.0 90.0)
           (-45.0 45.0)
  end
  begin
     id 29
     name rfingers
     direction -1 -4.48729e-011 1.02781e-027   
     length 0.470713   
     axis -6.5583e-016 -90 -90   XYZ
    dof rx
    limits (0.0 90.0)
  end
  begin
     id 30
     name rthumb
     direction -0.707107 -6.34964e-011 0.707107   
     length 0.675852   
     axis -90 -45 -2.85299e-015   XYZ
    dof rx rz
    limits (-45.0 45.0)
           (-45.0 45.0)
  end
:hierarchy
  begin
    root lhipjoint rhipjoint lowerback
    lhipjoint lfemur
    lfemur ltibia
    ltibia lfoot
    lfoot ltoes
    rhipjoint rfemur
    rfemur rtibia
    rtibia rfoot
    rfoot rtoes
    lowerback upperback
    upperback thorax
    thorax lowerneck lclavicle rclavicle
    lowerneck upperneck
    upperneck head
    lclavicle lhumerus
    lhumerus lradius
    lradius lwrist
    lwrist lhand lthumb
    lhand lfingers
    rclavicle rhumerus
    rhumerus rradius
    rradius rwrist
    rwrist rhand rthumb
    rhand rfingers
  end

#!OML:ASF F:\VICON\USERDATA\INSTALL\rory3\rory3.ASF
:FULLY-SPECIFIED
:DEGREES
189
root 0.369929 18.4391 -3.2488 -2.07838 -2.60853 -0.298554
lowerback 5.12449 1.53282 -0.827597
upperback 0.150414 1.97025 -0.83016
thorax -2.71562 0.98687 -0.535078
lowerneck -9.96438 -4.31835 -10.0838
upperneck 11.763 -6.50829 15.6685
head 6.04753 -2.56671 6.15863
rclavicle 9.14409e-015 -1.47101e-014
rhumerus -8.5829 20.5552 -49.8064
rradius 103.291
rwrist 13.0524
rhand -33.369 14.2534
rfingers 7.12502
rthumb -6.57042 -15.6247
lclavicle 9.14409e-015 -1.47101e-014
lhumerus -9.424 -15.5869 44.1866
lradius 93.3531
lwrist -3.24581
lhand -27.1868 10.8962
lfingers 7.12502
lthumb -0.60052 40.8751
rfemur -3.96701 21.4134 14.3263
rtibia 26.2395
rfoot -20.8489 -18.4849
rtoes -7.19755
lfemur -9.44403 -3.47467 -12.374
ltibia 29.8835
lfoot -16.7534 12.2432
ltoes -5.60824
190
root 0.366902 18.4417 -3.26719 -2.09073 -3.34313 -0.175009
lowerback 5.37286 1.5687 -1.08215
upperback 0.0793371 1.99799 -0.819361
thorax -2.93724 1.00422 -0.392727
lowerneck -9.93486 -4.28503 -10.2244
upperneck 11.7729 -6.44271 15.6578
head 6.03999 -2.5437 6.18635
rclavicle -3.45699e-015 5.56597e-015
rhumerus -8.32545 20.8183 -49.7592
rradius 103.347
rwrist 13.2566
rhand -33.2318 14.0052
rfingers 7.12502
rthumb -6.43798 -15.8769
lclavicle -3.45699e-015 5.56597e-015
lhumerus -8.85652 -16.2581 44.5179
lradius 93.5072
lwrist -3.31874
lhand -27.7224 10.2098
lfingers 7.12502
lthumb -1.11778 40.1866
rfemur -4.20506 21.6937 14.0657
rtibia 26.1659
rfoot -20.6763 -17.9642
rtoes -6.77789
lfemur -9.2317 -3.0416 -12.4874
ltibia 29.694
lfoot -16.7276 12.5754
ltoes -5.80408
191
root 0.36635 18.4434 -3.2829 -2.11495 -4.04074 -0.0473372
lowerback 5.53483 1.58603 -1.26138
upperback 0.076686 2.00527 -0.860204
thorax -3.0356 1.01013 -0.340133
lowerneck -10.1105 -4.26199 -10.2329
upperneck 11.9065 -6.40334 15.592
head 6.10468 -2.51967 6.17018
rclavicle 2.10898e-014 -1.11319e-014
rhumerus -7.95358 20.987 -49.7926
rradius 103.458
rwrist 13.3168
rhand -32.9055 13.8231
rfingers 7.12502
rthumb -6.12298 -16.0684
lclavicle 2.10898e-014 -1.11319e-014
lhumerus -8.41697 -17.03 44.5707
lradius 93.7136
lwrist -3.22004
lhand -28.1231 9.27765
lfingers 7.12502
lthumb -1.50478 39.2521
rfemur -4.37914 21.9163 13.8003
rtibia 26.053
rfoot -20.428 -17.4752
rtoes -6.58727
lfemur -9.01272 -2.65371 -12.6161
ltibia 29.5203
lfoot -16.7852 12.8641
ltoes -5.79983
192
root 0.368057 18.4481 -3.29324 -2.11516 -4.6888 0.225084
lowerback 5.52116 1.59452 -1.53874
upperback 0.157523 1.99728 -0.953997
thorax -2.95076 1.0089 -0.278778
lowerneck -10.3712 -4.25204 -10.1304
upperneck 11.9378 -6.36174 15.3982
head 6.14474 -2.49674 6.08889
rclavicle -9.97029e-015 1.19271e-014
rhumerus -7.56994 21.2169 -49.6783
rradius 103.381
rwrist 13.3277
rhand -33.4185 14.0184
rfingers 7.12502
rthumb -6.61823 -15.8582
lclavicle -9.97029e-015 1.19271e-014
lhumerus -7.97703 -17.8399 44.4166
lradius 94.0058
lwrist -2.94814
lhand -28.5538 9.68557
lfingers 7.12502
lthumb -1.92082 39.6567
rfemur -4.56946 22.0851 13.3494
rtibia 25.9307
rfoot -20.166 -16.985
rtoes -6.51881
lfemur -8.8084 -2.27961 -12.9205
ltibia 29.3267
lfoot -16.8376 13.1532
ltoes -5.85681
193
root 0.368456 18.4543 -3.30356 -2.10661 -5.4022 0.428902
lowerback 5.49671 1.62067 -1.79886
upperback 0.209826 2.01575 -0.993774
thorax -2.89091 1.02084 -0.173921
lowerneck -10.419 -4.21182 -10.0939
upperneck 11.7762 -6.26929 15.26
head 6.08444 -2.46152 6.04148
rclavicle -3.24392e-014 -7.95139e-016
rhumerus -7.34205 21.5329 -49.521
rradius 103.171
rwrist 13.4711
rhand -33.9606 14.0763
rfingers 7.12502
rthumb -7.14151 -15.7832
lclavicle -3.24392e-014 -7.95139e-016
lhumerus -7.61626 -18.4718 44.4417
lradius 94.3097
lwrist -2.7655
lhand -29.1915 11.0769
lfingers 7.12502
lthumb -2.53661 41.0416
rfemur -4.8145 22.3168 12.9718
rtibia 25.8137
rfoot -19.8971 -16.4623
rtoes -6.52093
lfemur -8.58982 -1.82776 -13.1384
ltibia 29.1174
lfoot -16.8968 13.4659
ltoes -5.91363
194
root 0.368484 18.4614 -3.316 -2.0665 -6.14819 0.566975
lowerback 5.50043 1.64824 -2.02057
upperback 0.228291 2.03862 -0.991112
thorax -2.88216 1.03494 -0.0488448
lowerneck -10.4817 -4.17217 -10.0609
upperneck 11.6906 -6.17658 15.0652
head 6.04848 -2.42783 5.97701
rclavicle -2.11084e-014 1.03368e-014
rhumerus -7.15712 21.8537 -49.3914
rradius 103.015
rwrist 13.6037
rhand -33.9765 13.9648
rfingers 7.12502
rthumb -7.15684 -15.8941
lclavicle -2.11084e-014 1.03368e-014
lhumerus -7.25639 -18.8857 44.6214
lradius 94.507
lwrist -2.75331
lhand -29.4516 11.6624
lfingers 7.12502
lthumb -2.78787 41.624
rfemur -5.1014 22.6008 12.6646
rtibia 25.7161
rfoot -19.6957 -15.904
rtoes -6.34589
lfemur -8.41449 -1.20796 -13.2592
ltibia 28.8993
lfoot -16.8736 13.693
ltoes -5.95282
